# AST/ASF file generated using VICON BodyLanguage
# -----------------------------------------------
:version 1.10
:name VICON
:units
  mass 1.0
  length 0.45
  angle deg
:documentation
   .ast/.asf automatically generated from VICON data using
   VICON BodyBuilder and BodyLanguage model FoxedUp or BRILLIANT.MOD
:root
   order TX TY TZ RX RY RZ
   axis XYZ
   position 0 0 0  
   orientation 0 0 0 
:bonedata
  begin
     id 1 
     name lhipjoint
     direction 0.650112 -0.723553 0.232005 
     length 2.45805 
     axis 0 0 0  XYZ
  end
  begin
     id 2 
     name lfemur
     direction 0.34202 -0.939693 0  
     length 7.00073  
     axis 0 0 20  XYZ
    dof rx ry rz
    limits (-160.0 20.0)
           (-70.0 70.0)
           (-60.0 70.0)
  end
  begin
     id 3 
     name ltibia
     direction 0.34202 -0.939693 0   
     length 7.8748   
     axis 0 0 20   XYZ
    dof rx
    limits (-10.0 170.0)
  end
  begin
     id 4 
     name lfoot
     direction 0.0542825 -0.14914 0.987325   
     length 1.75978   
     axis -90 7.62852e-016 20   XYZ
    dof rx rz
    limits (-45.0 90.0)
           (-70.0 20.0)
  end
  begin
     id 5 
     name ltoes
     direction 1.53509e-011 -4.21906e-011 1   
     length 0.893912   
     axis -90 7.62852e-016 20   XYZ
    dof rx
    limits (-90.0 20.0)
  end
  begin
     id 6 
     name rhipjoint
     direction -0.637897 -0.733345 0.235145   
     length 2.42522  
     axis 0 0 0  XYZ 
  end
  begin
     id 7 
     name rfemur
     direction -0.34202 -0.939693 0   
     length 7.02549   
     axis 0 0 -20   XYZ
    dof rx ry rz
    limits (-160.0 20.0)
           (-70.0 70.0)
           (-70.0 60.0)
  end
  begin
     id 8 
     name rtibia
     direction -0.34202 -0.939693 0   
     length 7.71512   
     axis 0 0 -20   XYZ
    dof rx
    limits (-10.0 170.0)
 end
 begin
     id 9 
     name rfoot
     direction -0.0822618 -0.226012 0.970645   
     length 1.90014  
     axis -90 -7.62852e-016 -20   XYZ
    dof rx rz
    limits (-45.0 90.0)
           (-20.0 70.0)
  end
  begin
     id 10 
     name rtoes
     direction -1.53542e-011 -4.21872e-011 1   
     length 0.957341   
     axis -90 -7.62852e-016 -20   XYZ
    dof rx
    limits (-90.0 20.0)
  end
  begin
     id 11 
     name lowerback
     direction -0.0022947 0.999774 -0.0211557   
     length 1.89909   
     axis 0 0 0   XYZ
    dof rx ry rz
    limits (-20.0 45.0)
           (-30.0 30.0)
           (-30.0 30.0)
  end
  begin
     id 12 
     name upperback
     direction 0.0107737 0.998635 0.0511027   
     length 1.8853   
     axis 0 0 0   XYZ
    dof rx ry rz
    limits (-20.0 45.0)
           (-30.0 30.0)
           (-30.0 30.0)
  end
  begin
     id 13 
     name thorax
     direction 0.011824 0.998136 0.0598754   
     length 1.88911   
     axis 0 0 0   XYZ
    dof rx ry rz
    limits (-20.0 45.0)
           (-30.0 30.0)
           (-30.0 30.0)
  end
  begin
     id 14 
     name lowerneck
     direction -0.0685355 0.990319 0.120714   
     length 1.91222   
     axis 0 0 0   XYZ
    dof rx ry rz
    limits (-20.0 45.0)
           (-30.0 30.0)
           (-30.0 30.0)
  end
  begin
     id 15 
     name upperneck
     direction 0.0886204 0.955665 -0.280805   
     length 1.92526   
     axis 0 0 0   XYZ
    dof rx ry rz
    limits (-20.0 45.0)
           (-30.0 30.0)
           (-30.0 30.0)
  end
  begin
     id 16
     name head
     direction 0.0233423 0.993502 -0.111393  
     length 1.96056  
     axis 0 0 0   XYZ
    dof rx ry rz
    limits (-20.0 45.0)
           (-30.0 30.0)
           (-30.0 30.0)
  end
  begin
     id 17 
     name lclavicle
     direction 0.941873 0.32922 0.0670041  
     length 3.31705  
     axis 0 0 0   XYZ
    dof ry rz
    limits (-20.0 10.0)
           (0.0 20.0)
  end
  begin
     id 18 
     name lhumerus
     direction 1 -4.4898e-011 3.38707e-028   
     length 5.29277   
     axis 180 -30 -90   XYZ
    dof rx ry rz
    limits (-60.0 90.0)
           (-90.0 90.0)
           (-90.0 90.0)
  end
  begin
     id 19
     name lradius
     direction 1 -4.48952e-011 1.63213e-028   
     length 2.85226   
     axis 180 -30 -90   XYZ
    dof rx
    limits (-10.0 170.0)
  end
  begin
     id 20
     name lwrist
     direction 1 -4.49001e-011 1.27856e-027   
     length 1.42613   
     axis -1.61767e-015 90 90   XYZ
    dof ry
    limits (-180.0 0.0)
 end
  begin
     id 21 
     name lhand
     direction 1 -4.48976e-011 2.55931e-027   
     length 0.602097   
     axis -1.63363e-015 90 90   XYZ
    dof rx rz
    limits (-90.0 90.0)
           (-45.0 45.0)
  end
  begin
     id 22 
     name lfingers
     direction 1 -4.48986e-011 5.11684e-027   
     length 0.485426   
     axis -3.26723e-015 90 90   XYZ
    dof rx
    limits (0.0 90.0)
  end
  begin
     id 23
     name lthumb
     direction 0.707107 -6.34915e-011 0.707107   
     length 0.696978   
     axis -90 45 -2.25915e-014   XYZ
    dof rx rz
    limits (-45.0 45.0)
           (-45.0 45.0)
  end
  begin
     id 24 
     name rclavicle
     direction -0.939974 0.327078 0.0973096   
     length 3.10337  
     axis 0 0 0   XYZ 
    dof ry rz
    limits (-10.0 20.0)
           (-20.0 0.0)
  end
  begin
     id 25 
     name rhumerus
     direction -1 -4.48975e-011 1.83745e-027  
     length 5.13304   
     axis 180 30 90   XYZ
    dof rx ry rz
    limits (-90.0 60.0)
           (-90.0 90.0)
           (-90.0 90.0)
  end
  begin
     id 26 
     name rradius
     direction -1 -4.48977e-011 7.1775e-029   
     length 2.74305   
     axis 180 30 90   XYZ
    dof rx
    limits (-10.0 170.0)
  end
  begin
     id 27 
     name rwrist
     direction -1 -4.48977e-011 1.27963e-027   
     length 1.37152   
     axis -1.61767e-015 -90 -90   XYZ
    dof ry
    limits (-180.0 0.0)
  end
  begin
     id 28
     name rhand
     direction -1 -4.4888e-011 2.56782e-027   
     length 0.767976   
     axis -1.63363e-015 -90 -90   XYZ
    dof rx rz
    limits (-90.0 90.0)
           (-45.0 45.0)
  end
  begin
     id 29
     name rfingers
     direction -1 -4.48947e-011 5.12384e-027   
     length 0.619162   
     axis -3.26723e-015 -90 -90   XYZ
    dof rx
    limits (0.0 90.0)
  end
  begin
     id 30
     name rthumb
     direction -0.707107 -6.34857e-011 0.707107   
     length 0.888997   
     axis -90 -45 2.25915e-014   XYZ
    dof rx rz
    limits (-45.0 45.0)
           (-45.0 45.0)
  end
:hierarchy
  begin
    root lhipjoint rhipjoint lowerback
    lhipjoint lfemur
    lfemur ltibia
    ltibia lfoot
    lfoot ltoes
    rhipjoint rfemur
    rfemur rtibia
    rtibia rfoot
    rfoot rtoes
    lowerback upperback
    upperback thorax
    thorax lowerneck lclavicle rclavicle
    lowerneck upperneck
    upperneck head
    lclavicle lhumerus
    lhumerus lradius
    lradius lwrist
    lwrist lhand lthumb
    lhand lfingers
    rclavicle rhumerus
    rhumerus rradius
    rradius rwrist
    rwrist rhand rthumb
    rhand rfingers
  end

#!OML:ASF F:\VICON\USERDATA\INSTALL\rory3\rory3.ASF
:FULLY-SPECIFIED
:DEGREES
1
root -0.0761694 17.3993 0.0652675 0.825457 6.96235 -0.244523
lowerback -1.32669 -0.365469 -2.13414
upperback -1.56364 -0.470327 0.391849
thorax -0.837796 -0.211432 1.59472
lowerneck 4.6475 -10.478 -22.9659
upperneck 14.4966 -17.7746 22.3451
head 7.79548 -9.05815 10.0174
rclavicle 1.41355e-014 7.45443e-015
rhumerus -10.6839 -14.0614 -53.4429
rradius 97.7181
rwrist -4.35467
rhand 1.23993 1.87923
rfingers 7.12502
rthumb 26.7775 -26.2454
lclavicle 1.41355e-014 7.45443e-015
lhumerus 9.40036 6.68706 51.9258
lradius 104.807
lwrist 5.76741
lhand 2.80969 40.0647
lfingers 7.12502
lthumb 28.2787 67.9502
rfemur 9.26632 7.36048 20.5598
rtibia 4.77083e-015
rfoot -8.43936 -12.3539
rtoes -24.2188
lfemur -0.386244 -19.6115 -18.0744
ltibia 13.7094
lfoot -12.7363 9.61562
ltoes -25.5609
2
root -0.07458 17.3973 0.0648051 0.738643 6.82131 -0.235076
lowerback -1.33916 -0.345772 -2.10141
upperback -1.5662 -0.444084 0.382357
thorax -0.834841 -0.1987 1.56673
lowerneck 5.55553 -10.228 -23.2078
upperneck 14.0151 -17.5376 22.4684
head 7.45043 -9.01613 10.1866
rclavicle 3.48805e-015 -2.5345e-015
rhumerus -8.44085 -14.8294 -52.8081
rradius 99.4663
rwrist -5.07614
rhand 1.23533 1.24534
rfingers 7.12502
rthumb 26.7731 -26.88
lclavicle 3.48805e-015 -2.5345e-015
lhumerus 12.3082 8.05693 51.5765
lradius 105.832
lwrist 5.69972
lhand 2.36334 40.083
lfingers 7.12502
lthumb 27.852 68.0384
rfemur 9.33632 7.50127 20.5518
rtibia 3.18055e-015
rfoot -8.41463 -12.3632
rtoes -24.5044
lfemur -0.319467 -19.4738 -18.1317
ltibia 13.8083
lfoot -12.7654 9.7324
ltoes -26.4515
3
root -0.0755134 17.3887 0.0660732 0.619632 6.81194 -0.101296
lowerback -1.27788 -0.371269 -2.24395
upperback -1.60772 -0.479221 0.345638
thorax -0.909586 -0.213786 1.6094
lowerneck 6.53835 -9.95055 -23.4555
upperneck 13.5613 -17.2819 22.5559
head 7.09523 -8.97004 10.3512
rclavicle 1.54555e-014 4.37326e-015
rhumerus -6.15997 -15.5104 -52.235
rradius 101.053
rwrist -5.55102
rhand 1.31391 0.627295
rfingers 7.12502
rthumb 26.8483 -27.4865
lclavicle 1.54555e-014 4.37326e-015
lhumerus 14.7681 9.17479 51.0266
lradius 106.765
lwrist 5.70922
lhand 1.74341 39.7847
lfingers 7.12502
lthumb 27.2592 67.8347
rfemur 9.49919 7.50851 20.4298
rtibia -1.27222e-014
rfoot -8.4321 -12.3616
rtoes -24.5865
lfemur -0.215508 -19.4701 -18.3109
ltibia 13.9117
lfoot -12.7948 9.7678
ltoes -26.9506
4
root -0.0740717 17.3868 0.0699656 0.56719 6.83501 -0.0712581
lowerback -1.26624 -0.395302 -2.19611
upperback -1.67901 -0.512761 0.300479
thorax -0.988472 -0.229753 1.53651
lowerneck 7.33557 -9.72294 -23.6495
upperneck 13.2661 -17.0781 22.5657
head 6.82634 -8.93426 10.461
rclavicle 1.79217e-014 -8.64713e-015
rhumerus -3.77795 -16.1854 -51.799
rradius 102.422
rwrist -5.47398
rhand 1.0641 0.729038
rfingers 7.12502
rthumb 26.6092 -27.4213
lclavicle 1.79217e-014 -8.64713e-015
lhumerus 17.2072 10.2034 50.4744
lradius 107.465
lwrist 5.73609
lhand 1.47195 39.9131
lfingers 7.12502
lthumb 26.9995 68.0036
rfemur 9.59118 7.48445 20.4102
rtibia 7.95139e-015
rfoot -8.47598 -12.3665
rtoes -24.4171
lfemur -0.179298 -19.4951 -18.3566
ltibia 14.0069
lfoot -12.9219 9.71436
ltoes -26.2786
5
root -0.0715654 17.3847 0.0726452 0.525991 6.77115 -0.117871
lowerback -1.34675 -0.411739 -2.04666
upperback -1.66843 -0.533647 0.286469
thorax -0.932872 -0.242632 1.43757
lowerneck 8.03971 -9.49945 -23.8368
upperneck 12.9181 -16.854 22.5613
head 6.55166 -8.88113 10.5587
rclavicle -6.3052e-016 -2.5345e-015
rhumerus -1.22285 -16.841 -51.4983
rradius 103.822
rwrist -5.35935
rhand 1.04843 0.742848
rfingers 7.12502
rthumb 26.5942 -27.4097
lclavicle -6.3052e-016 -2.5345e-015
lhumerus 19.8066 11.3252 50.0304
lradius 108.091
lwrist 5.69709
lhand 1.35776 40.395
lfingers 7.12502
lthumb 26.8902 68.5024
rfemur 9.63746 7.54803 20.4654
rtibia 0
rfoot -8.46427 -12.3667
rtoes -24.4794
lfemur -0.186848 -19.4319 -18.3214
ltibia 14.1423
lfoot -12.9641 9.74046
ltoes -26.5917
6
root -0.0709481 17.3825 0.0753154 0.401959 6.65419 -0.146578
lowerback -1.4069 -0.415094 -1.98428
upperback -1.5592 -0.53632 0.285241
thorax -0.787567 -0.247086 1.40032
lowerneck 8.62705 -9.31736 -23.9776
upperneck 12.5826 -16.666 22.545
head 6.30698 -8.83452 10.6312
rclavicle 1.42876e-014 7.8023e-015
rhumerus 1.42668 -17.6359 -51.3362
rradius 105.097
rwrist -5.25383
rhand 1.31298 0.98212
rfingers 7.12502
rthumb 26.8474 -27.1318
lclavicle 1.42876e-014 7.8023e-015
lhumerus 22.4862 12.5363 49.8176
lradius 108.786
lwrist 5.46154
lhand 1.57048 41.2023
lfingers 7.12502
lthumb 27.0937 69.2782
rfemur 9.7652 7.66295 20.5221
rtibia -2.8625e-014
rfoot -8.44355 -12.3823
rtoes -24.5694
lfemur -0.0964374 -19.3182 -18.3311
ltibia 14.2809
lfoot -12.9491 9.7069
ltoes -26.9635
7
root -0.069777 17.3798 0.0782322 0.295566 6.54073 -0.220964
lowerback -1.42947 -0.432139 -1.87732
upperback -1.47283 -0.558695 0.29502
thorax -0.686316 -0.260956 1.34958
lowerneck 9.04598 -9.14529 -24.1507
upperneck 12.3817 -16.4851 22.5307
head 6.13929 -8.78157 10.7011
rclavicle 1.0635e-014 8.89561e-015
rhumerus 4.01748 -18.4162 -51.2536
rradius 106.318
rwrist -5.23643
rhand 1.44743 1.2773
rfingers 7.12502
rthumb 26.976 -26.8168
lclavicle 1.0635e-014 8.89561e-015
lhumerus 25.1325 13.7747 49.7107
lradius 109.335
lwrist 5.18077
lhand 2.38861 41.8134
lfingers 7.12502
lthumb 27.8762 69.7649
rfemur 9.86193 7.77432 20.6249
rtibia 9.54166e-015
rfoot -8.39963 -12.4028
rtoes -24.7175
lfemur -0.0456157 -19.2072 -18.2898
ltibia 14.4537
lfoot -13.0481 9.67607
ltoes -26.8238
8
root -0.0671443 17.375 0.0789809 0.228759 6.41104 -0.227968
lowerback -1.42525 -0.433085 -1.70868
upperback -1.43407 -0.561627 0.184465
thorax -0.651353 -0.265059 1.14161
lowerneck 9.46876 -8.98493 -24.082
upperneck 12.2879 -16.3038 22.3908
head 5.97109 -8.7192 10.6848
rclavicle 1.13991e-014 -7.95139e-015
rhumerus 6.52838 -19.1671 -51.3129
rradius 107.505
rwrist -5.34119
rhand 1.50213 1.42723
rfingers 7.12502
rthumb 27.0284 -26.6588
lclavicle 1.13991e-014 -7.95139e-015
lhumerus 27.7633 14.8249 49.5382
lradius 109.817
lwrist 5.05406
lhand 3.35489 42.0967
lfingers 7.12502
lthumb 28.7996 69.8948
rfemur 9.90037 7.90328 20.6411
rtibia 1.59028e-014
rfoot -8.27284 -12.4356
rtoes -25.3595
lfemur -0.0247103 -19.0795 -18.3179
ltibia 14.6145
lfoot -13.2681 9.65738
ltoes -26.3482
9
root -0.0661545 17.3707 0.076725 0.196056 6.27177 -0.191401
lowerback -1.40917 -0.457236 -1.64083
upperback -1.44015 -0.595049 0.113133
thorax -0.666868 -0.282534 1.0304
lowerneck 10.0295 -8.77709 -24.0921
upperneck 12.1824 -16.0853 22.2204
head 5.77193 -8.65061 10.6827
rclavicle -4.36705e-015 -6.06293e-015
rhumerus 9.10375 -19.6951 -51.379
rradius 108.556
rwrist -5.53329
rhand 1.35367 1.43982
rfingers 7.12502
rthumb 26.8863 -26.6681
lclavicle -4.36705e-015 -6.06293e-015
lhumerus 30.2636 15.897 49.5032
lradius 110.294
lwrist 4.92549
lhand 4.23375 42.3316
lfingers 7.12502
lthumb 29.6388 69.9837
rfemur 9.88801 8.04206 20.6096
rtibia -6.36111e-015
rfoot -8.10111 -12.4586
rtoes -26.0715
lfemur -0.0604043 -18.9415 -18.3559
ltibia 14.7695
lfoot -13.3781 9.67499
ltoes -26.3492
10
root -0.0670533 17.3716 0.07526 0.150018 6.13201 -0.305746
lowerback -1.37843 -0.530145 -1.50599
upperback -1.45206 -0.693797 0.154347
thorax -0.694313 -0.332598 0.996568
lowerneck 10.3795 -8.53492 -24.2622
upperneck 12.2814 -15.8217 22.0537
head 5.67573 -8.55454 10.7042
rclavicle -1.59587e-014 3.27995e-015
rhumerus 11.781 -19.9918 -51.5252
rradius 109.435
rwrist -5.57793
rhand 0.985628 1.53818
rfingers 7.12502
rthumb 26.5341 -26.6235
lclavicle -1.59587e-014 3.27995e-015
lhumerus 32.4944 17.0259 49.4704
lradius 110.76
lwrist 4.7987
lhand 4.88803 42.5976
lfingers 7.12502
lthumb 30.2632 70.1369
rfemur 9.39112 8.17557 20.7995
rtibia 1.01828
rfoot -8.67362 -12.6002
rtoes -25.3252
lfemur -0.0669983 -18.8024 -18.2154
ltibia 14.8608
lfoot -13.3087 9.6785
ltoes -26.8176
11
root -0.0633936 17.3708 0.0786338 0.0730257 6.02402 -0.347817
lowerback -1.34473 -0.559987 -1.33639
upperback -1.46937 -0.735759 0.103273
thorax -0.732396 -0.354981 0.849388
lowerneck 10.6607 -8.36801 -24.3112
upperneck 12.5053 -15.6524 21.8396
head 5.64022 -8.49595 10.6735
rclavicle -4.28008e-015 9.64106e-015
rhumerus 14.2354 -20.3344 -51.6518
rradius 110.207
rwrist -5.26743
rhand 0.172932 1.75367
rfingers 7.12502
rthumb 25.756 -26.5232
lclavicle -4.28008e-015 9.64106e-015
lhumerus 34.7572 17.8447 49.49
lradius 111.155
lwrist 4.64839
lhand 5.17302 42.9842
lfingers 7.12502
lthumb 30.535 70.4733
rfemur 8.84205 8.27894 20.9036
rtibia 2.2694
rfoot -9.35553 -12.8061
rtoes -24.6526
lfemur 0.0236116 -18.6967 -18.209
ltibia 14.9078
lfoot -13.304 9.70152
ltoes -27.0376
12
root -0.0569178 17.3665 0.0823225 -0.00107245 5.93493 -0.194483
lowerback -1.34315 -0.63838 -1.45313
upperback -1.42369 -0.839243 0.0811734
thorax -0.682685 -0.406417 0.891065
lowerneck 10.9244 -8.20928 -24.4036
upperneck 12.6288 -15.4732 21.5737
head 5.57531 -8.43295 10.6265
rclavicle 1.08959e-014 -6.16232e-015
rhumerus 16.8786 -20.6333 -51.8536
rradius 110.944
rwrist -4.94863
rhand -0.316122 1.81732
rfingers 7.12502
rthumb 25.2875 -26.5266
lclavicle 1.08959e-014 -6.16232e-015
lhumerus 36.9118 18.8245 49.6366
lradius 111.539
lwrist 4.43188
lhand 5.54506 43.2447
lfingers 7.12502
lthumb 30.8897 70.6671
rfemur 8.43073 8.36796 20.7611
rtibia 3.20981
rfoot -9.71556 -12.9885
rtoes -25.0908
lfemur 0.152301 -18.6103 -18.4415
ltibia 14.9322
lfoot -13.4007 9.59366
ltoes -26.2335
13
root -0.0535991 17.3615 0.0849888 -0.0549819 5.80043 -0.0645322
lowerback -1.37365 -0.785307 -1.71482
upperback -1.35276 -1.03152 0.200521
thorax -0.581379 -0.501137 1.15714
lowerneck 11.0522 -7.94648 -24.7196
upperneck 12.8184 -15.1577 21.3683
head 5.54319 -8.3055 10.6479
rclavicle -7.1842e-015 1.44119e-015
rhumerus 19.8502 -20.8626 -52.2378
rradius 111.819
rwrist -5.32908
rhand 0.254004 1.46501
rfingers 7.12502
rthumb 25.8336 -26.8006
lclavicle -7.1842e-015 1.44119e-015
lhumerus 38.8429 19.973 49.837
lradius 111.936
lwrist 4.06474
lhand 6.07696 43.3037
lfingers 7.12502
lthumb 31.3967 70.6288
rfemur 8.17478 8.50253 20.6403
rtibia 3.7791
rfoot -9.88874 -13.1608
rtoes -25.6021
lfemur 0.231053 -18.4774 -18.6266
ltibia 15.0092
lfoot -13.596 9.37283
ltoes -24.3765
14
root -0.0523362 17.3606 0.0858628 -0.0638071 5.624 -0.0949101
lowerback -1.44023 -0.873063 -1.79313
upperback -1.30352 -1.14576 0.345921
thorax -0.485527 -0.558317 1.34718
lowerneck 11.1973 -7.71176 -24.9925
upperneck 13.0411 -14.8812 21.1283
head 5.52256 -8.19711 10.645
rclavicle -2.33106e-015 5.44173e-015
rhumerus 22.6876 -21.0873 -52.5795
rradius 112.654
rwrist -5.7771
rhand 0.637998 1.22374
rfingers 7.12502
rthumb 26.2013 -26.9878
lclavicle -2.33106e-015 5.44173e-015
lhumerus 40.8313 20.9652 50.1337
lradius 112.33
lwrist 4.11086
lhand 6.18388 43.3807
lfingers 7.12502
lthumb 31.4985 70.6859
rfemur 7.94423 8.6778 20.6902
rtibia 4.28437
rfoot -10.2183 -13.2196
rtoes -25.2384
lfemur 0.213059 -18.2447 -18.5909
ltibia 15.1057
lfoot -13.8036 9.22073
ltoes -22.8722
